<?xml version="1.0" encoding="utf-8"?>
<!-- Generator: Adobe Illustrator 22.1.0, SVG Export Plug-In . SVG Version: 6.00 Build 0)  -->
<svg version="1.1" id="Layer_1" xmlns="http://www.w3.org/2000/svg" xmlns:xlink="http://www.w3.org/1999/xlink" x="0px" y="0px"
	 viewBox="0 0 209.8 247.9" style="enable-background:new 0 0 209.8 247.9;" xml:space="preserve">
<style type="text/css">
	.st0{fill:#0099CC;}
	.st1{fill:#059BC6;}
</style>
<title>logo</title>
<path class="st0" d="M58.6,42.1c0.2,1,0.4,1.9,0.6,2.9l-2.6,2c-1-1.8-0.6-3.9-0.2-6.1c0.2-0.9-0.4-1.9-0.7-3.2L52,38.1
	c-0.1-0.5-0.2-1.1-0.4-1.7c-1.6-0.4-1.4,2.5-3.5,1.2l1.2,1.8l0,0l-1.4,0.4c0,0.5-0.1,1.3-0.2,2L36,43c0.4-1,0.8-2,1.2-2.9
	c1.7-4.1,2.7-8.5,2.8-13c0-0.5,0.3-1.3,0.6-1.4c2.3-0.9,4.6-1.6,6.9-2.4c0.2,1.5,0.4,2.7,0.6,3.9l0.2-0.1c-0.2,0.7-0.3,1.4-0.4,2.1
	c-0.1,1.2-0.1,2.3-0.1,3.5c0.1,1.2,0.4,2.3,0.6,3.5l-0.2,0.2l0.2,0l0-0.3c0.2,0,0.6,0,0.6,0c-0.1-1.1,0.6-1.3,1.5-1.5
	c1.1-0.2,1.9-1.4,1.4-2.3c-0.4-0.7,0.8-1.5-0.4-2c0.4-0.3,0.8-0.8,1.2-0.8c0.8,0.2,1.7-0.3,1.8-1.2c0,0,0,0,0-0.1
	c0.3-1,0.9-1.2,1.8-1.5c0.5,0.9,1,1.9,2.4,1.3l-1.3-0.6c0-0.1,0-0.1,0.1-0.2c0.2-0.3,0.5-0.6,0.5-0.9c-0.1-1.1-0.3-2.1-0.5-3.1
	c0-0.1,0-0.1,0-0.2c-2-1.1-0.5-2.5-0.3-3.7c1-0.3,1.9-0.7,2.8-0.9c1.3-0.3,1.5,0,1.4,1.3c-0.1,1.1-0.1,1.1,1.4,1.6
	c0.2,0.1,0.4,0.5,0.7,1c0.6-1.1,1.4-2,1.4-2.9c0-2.6,1.7-3.6,3.7-4.4c3.6-1.5,7.3-2.9,10.9-4.5c0.8-0.3,1.2-0.3,1.8,0.4
	c6.5,6.9,14.6,9.8,23.9,10c5.6,0.2,10.9-0.7,15.9-3.3c1.7-0.9,3.1-2,4.7-3.1l1.3-0.9c0.9,1.6-0.3,3.7,1.5,4.8
	c-1.6,2.7-0.4,5.3,0.2,7.9c0.2,0.4,0.6,0.6,1,0.6c0.9-0.1,1.7-0.3,2.5-0.5c0.7-0.2,1.3-0.3,1.4-1.3c0.1-0.3,1.2-0.4,2-0.7
	c-0.6-1-1.2-2.2-1.7-3.2c0.8,0,1.1,0.1,2.1,1.1c0.1-0.7,0.2-1.5,0.4-2.3c0.7-0.1,1.5-0.3,2.3-0.5c0.4-0.1,0.8-0.3,1.2-0.6
	c0.3-0.2,0.6-0.5,0.9-0.7c0.7-0.4,0.7-0.3,0.7-1.3l-1.8-0.5c0.6-0.9,1.2-1.6,1.7-2.2c0.6,0.7,1.9,1.2,1.8,2.6c0,0.2-0.4,0.3-0.6,0.5
	l-0.1-0.1l0.1,0.1c0.2,1.1,0.3,2.3,0.5,3.6l4-1l-0.8-1.5h3.3c0,0.3,0,0.6-0.1,0.9l1.3-0.8l0.2,0.2l-0.5,0.8c0.8-0.2,1.7-0.6,2.5-0.4
	c1.2,0.2,2.2,0.9,3.4,1.4c-0.1,0.5-0.3,1-0.4,1.7l1.6-0.7l0.2-0.2l0.9,0.4c-0.1,1.6-1.2,2.7-2.1,3.7c0.2,0.6,0.4,1.1,0.6,1.6l2-0.9
	c0-0.8-0.1-1.7,0.2-2.3c0.3-0.5,1.1-0.7,1.8-1.2l9,3.6c0.3,2.7,0.6,5.2,0.8,7.7c0,0.5-0.2,1-0.4,1.5c0.4,0.3,1.5,0.3,0.7,1.5
	c-0.3,0.4,0.1,1.3,0.2,2.1l-1.3,1.9l3.6,0.4l3.2,4.9l-1.2,2.2c0.4,0.4,0.9,0.9,1.3-0.1c0.4-1,0.8-0.9,1.5-0.2c2,2.1,4.2,4.1,6.4,6.1
	c3.2,2.8,7.1,4,11.2,4.9c1.8,0.4,3.7,0.7,5.6,1.1c0,1.4,0.1,2.7,0,3.9c-1.1,8.4-2.2,16.8-3.3,25.2c-0.6,4.7-1.2,9.4-1.8,14.1
	c-0.1,0.8-0.3,1.5-0.6,2.2c-1.6,3.7-2.2,7.6-2.5,11.6c0,0.2,0,0.5-0.1,0.7c-2.1,3.6-2.2,7.9-3.6,11.7c-0.5,1.3-0.7,2.7-1,4.1
	c-0.1,0.5-0.1,1.1-0.4,1.5c-1.7,3-2.2,6.3-3.3,9.5c-0.9,2.8-2.2,5.4-3.3,8.2c-1.7,4.3-3.3,8.7-4.9,13c-0.1,0.3-0.2,0.7-0.4,0.9
	c-1.7,2.1-3,4.5-3.9,7c-0.1,0.1-0.2,0.3-0.3,0.4l-24-11.3l5.8-5.2c0.7,1.6,1.3,2.9,2,4.4l5.5-9c0.5,1.7,1,3,1.5,4.7
	c1.4-1.8,2.7-3.3,3.9-4.9c1.5-2,3.1-3.9,4.5-6c1.3-1.9,2.4-4,3.4-6.1c1.5-3.2,3-6.5,4.4-9.7c0.4-1,0.7-2.1,1-3.2
	c1.1-3.7,2.3-7.4,3.3-11.1c0.4-1.6,0.4-3.2,0.6-4.8c0.3-2.7,0.7-5.5,0.7-8.2c0.1-2.1-0.2-4.2-0.4-6.3c-0.3-2.7-0.6-5.5-1-8.2
	c-0.3-1.7-0.9-3.4-1.4-5.1c-0.6-2.1-1.2-4.2-1.8-6.2c-0.2-0.9-0.5-1.7-0.9-2.5c-1.4,9.4-2.2,19-3.5,28.4h-0.5
	c-0.1-0.6-0.3-1.3-0.3-2c-0.3-2.6-0.4-5.3-0.7-7.9c-0.5-4-1.9-7.7-3.1-11.5c-0.2-0.6-0.6-1.2-0.7-1.8c-0.3-2.2-1.5-3.9-2.7-5.6
	c-0.4-0.6-0.8-1.3-1.1-2c-1-2.1-1.9-4.2-2.8-6.2c-0.4-0.7-0.8-1.3-1.3-1.9c-2.2-2.7-4.4-5.4-6.7-8.1c-0.2-0.3-0.4-0.6-0.5-0.9
	l-0.5,0.3c0.4,1.7,0.7,3.4,1.2,5.1c0.9,2.9,1.4,5.8,1.6,8.8c0.1,1.9,0.4,3.8,0.6,5.7c0,0.1,0,0.2,0,0.4c-0.1,1.2-1.2,2.1-0.5,3.6
	c0.5,1.1-0.1,2.5-0.1,3.8c0,2.5-0.4,5-1.1,7.4c-0.5,1.7-0.8,3.5-1.3,5.4l-5.5-3.7c-0.1,1.2-0.3,2.3-0.2,3.4c0.1,1.5-0.5,2.3-2.2,2.9
	l-1.5-2c-1.2,1.2-0.6,3-2.1,4c-0.9-2.1-1-3.9,1-5.7l-2.4-0.2c-0.1-0.8-0.2-1.6-0.2-2.4c0-0.5,0-1.4,0.3-1.6c0.4-0.2,1.1,0,1.9,0.1
	c-0.1-0.7-0.2-1.5-0.3-2.4l-1.9,0.5c-0.5-1.4-1.5-1.2-2.8-0.9c-2.7,0.6-5.4,0.8-8.3,1.2c0,1.9,0.2,3.9,0.7,5.7
	c0.1,0.2,0.1,0.3,0.2,0.5c0.9,2.8-0.1,4.5-3,5c-5.8,1-9.6-2.1-11.2-6.2c-1.3-3.5-0.9-7.1,1.8-10.1c1.1-1.3,2.4-2.4,3.8-3.3
	c0.9-0.5,2.2-0.5,3.4-0.6c2.5-0.1,4.9-0.1,7.3,1c0.3,0.1,0.7,0.2,1.1,0.3c0.8-0.7,0.9-1.5,1.1-2.6c0.2-1.8,0.8-3.5,1.3-5.2
	c0.1-0.4,0.4-0.7,0.7-1c0.1-0.1,0.4-0.1,0.8-0.1c0.1-0.1,0.2-0.4,0.4-0.7c0.3-0.7-0.1-1.2-0.7-1.3c-5.1-0.5-10.1-2.3-15.3-0.7
	c-0.5,0.1-1,0.1-1.6,0.1c1.5-5,2.9-9.9,4.4-15.2l9.1,13l7.5-1.2c0.9-3.8,0.2-7.8,0.2-11.8c0-3.8-0.1-7.7-0.2-11.5
	c-0.1-4.4-0.1-8.8-0.2-13.2c0-0.5-0.1-0.9-0.2-1.6c-2.4,0.6-4.9,0.1-6.8,1.8c-0.2,0.2-0.8,0.1-1.1,0c-1.7-0.4-2-0.1-1.9,1.6
	c0.1,0.9,0,1.7-1,2.2c1,0.8,1.2,1.7,1.1,2.8c-0.1,2.6,0,5.2,0,7.7l-0.4,0.2c-1.6-2.2-3.2-4.3-4.9-6.5c-1.6-2.2-3.4-4.3-5.3-6.9
	c-1.6,5.5-3,10.6-4.7,15.5h-0.4c-0.3-0.5-0.5-1-0.7-1.5c-1.3-3.6-2.7-7.3-3.9-10.9c-0.3-0.8-0.7-1-1.4-0.8c-1.1,0.3-2.2,0.5-3.3,0.8
	c-1.7,0.4-3.5,1.2-5.5,0.5c3.6,12.4,7.4,24.6,11.2,36.9l5-0.9l0.2,0.3c-2.8,1.3-5.3,3.1-7.2,5.6c-1.9,2.5-3.3,5.4-3.9,8.4
	c-0.5-0.4-0.7-0.5-0.8-0.8c-3.2-5.9-8.3-9.1-14.7-10.5c-0.9-0.2-0.9-0.2-1.7-1.4c1.3-0.3,2.5-0.5,3.7-0.7c2.4-0.4,4.9-0.8,7.3-1.2
	l4.4-0.7c0.7-0.1,1.2-0.2,1.4-1.1c0.5-2.5,1.1-4.9,0.9-7.7c-0.6,0-1.2,0-1.7,0c-2.6,0.4-5.1,0.9-7.6,1.3c-2.1,0.4-2.6-0.1-2.6-2.2
	c0-0.3,0.1-0.6,0.1-0.9l6.6-1.2l-1.4-8.5l-6.8,1c-0.2-0.4-0.5-1-0.7-1.6c-0.4-1.1,0.1-1.9,1.3-2.1c2.5-0.4,5-0.7,7.5-1.1
	c1.6-0.2,1.9-0.6,1.3-2.2c-0.7-2.1-1.6-4.2-2.4-6.3L83.7,41c-1.5-1.3-2.9-2.6-4.3-3.7c-1.8-1.4-4-1.9-6.3-1.9
	c-1.1,0-2.2-0.2-3.3-0.1c-0.9,0.1-1.8,0.4-2.1,1.5c-1-0.7-2.2-0.9-3.4-0.6c-1,0.2-2,0.3-2.9,0.5c-1.6,0.3-3.1,0.6-3.9,2.3l-0.1,0.2
	l0.1-0.3l1,0.2l-0.4,0.8l2.5,1.1C60.5,42.6,60.5,42.6,58.6,42.1l-0.1-0.9l-0.3,0.1L58.6,42.1z M138.9,81.6l2.2,1.7
	c-0.2,0.4-0.5,0.9-0.4,1c1,1,0.1,1.4-0.5,1.9c1.5,0.1,1.5,0.1,2.3-1.2c1.6-0.3,1,1.5,1.8,1.9c0.2-0.8,0.2-2,0.7-2.2
	c1-0.4,0.7-0.9,0.4-1.3c-0.2-0.3-1-0.6-1.2-0.5c-1,0.7-1.3,0.1-1.8-0.6C141.5,81.4,140.6,81,138.9,81.6z M139.2,23.2
	c-0.1,0.6-0.1,0.9-0.1,1.3c-0.8-0.3-0.8,0.4-1,0.7s-0.4,0.8-0.5,1.3c0.4,0.1,0.9,0.4,1.3,0.3c1.1-0.5,2.1-1,3.2-1.6c0,0,0-0.1,0-0.2
	l-1.1-0.8l1.1-1.4L139.2,23.2z M60.4,25.8c-0.1,2.1,0.2,2.5,1.7,2.7c1.4,0.2,1.3-1,1.6-1.8c-0.5,0-1.3,0-1.4-0.1
	C62.1,25.5,61.2,25.9,60.4,25.8L60.4,25.8z M61.9,25.1l0.4-0.2l-0.6-1l-0.3,0.2L61.9,25.1z M139.9,80.5c0,0.2,0,0.3,0,0.5
	c0.3,0,0.6,0,0.9,0c0-0.1,0-0.3,0-0.4H139.9z"/>
<path class="st1" d="M54.3,199.5c3.1-1.7,5.9-3.3,8.7-4.7c2.8-1.4,5.6-2.7,8.4-4c1.5-0.7,3.1-1.4,4.6-2c5.8-2.3,11.7-4.3,17.6-6
	c7.7-2.2,15.8-3.2,23.8-2.9c1.7,0.1,3.3,0.5,5,0.7c1.2,0.2,2.5,0.2,3.7,0.4c1.2,0.1,2.1,1.1,2.1,2.3h-1.5l-0.3-1
	c-0.7,0.4-1.4,0.4-2.1,1.3c-0.8,1,0.4,1.6-0.1,2.3l5.2,0.4c-0.8,1.6,0.4,2.8,0,4.3c-0.2,0.7,0.4,1.6,0.6,2.5
	c0.1,0.4,0.5,0.9-0.1,1.4c-0.1,0.1,0.1,1.1,0.4,1.3c0.7,0.5,0.6,1.2,0.9,1.8c0.5,1.1-0.1,1.3-1.2,1.6c1.1,0.4,1.8,1.1,1.3,2.1
	c-0.2,0.6-0.7,1.1-1.3,1.4c-0.6,0.2-1.4,0.1-2.2,0c-0.9-0.1-2,0.6-1.9,1.5c0.1,0.7,0.4,1.5,0.9,1.9c1,0.7,2.2,1.2,3.6,1.9l-0.6,1.5
	l-0.4-0.1v-0.8l-3.7,1.8c0.6,0.2,1.3,0.4,2,0.6c0.3,0.1,0.6,0.3,0.7,0.5c0.6,2.3,2.9,3.6,3.5,5.9c0.5-0.2,1-0.5,1.4-0.4
	c0.4,0.1,0.8,0.5,1.3,0.9l1.4-2.2l-0.8-1.3l-0.9,0.5c-0.2-0.7-0.4-1.3-0.5-2c0.7-0.6,1-1.7,2.1-2.2c0.7-0.3,0.6-2.6-0.1-3.4
	c-0.6-0.7-0.6-1.4-0.6-2.1c-0.1-1.6-0.2-3.2-0.3-4.7c0-0.9-0.1-1.9,1-2.4c0.3-0.1,0.4-0.6,0.7-1.1l-2.1-1.2v-2.8l-2-0.7
	c0.7-0.4,1.4-0.7,1.7-1.2s-0.1-1.2-0.2-1.8c0-0.3,0.1-0.7,0-1c-0.1-0.8-0.4-1.6-0.6-2.6c0.8-0.9,0.7-1.5-0.8-2.4
	c1.5-0.5,2.9,0,4.3,0.4c4,1.2,8.1,2.5,12.1,3.7c1.4,0.4,2.9,0.9,4.3,1.4c0.3,0.1,0.6,0.5,1.1,1l-2.1,0.7l1,1.6l2.4-2.6l6.1,2.5
	c-0.5,2-1.8,3.3-2.8,4.7c-1.2,1.6-2.8,2.8-3.9,4.4c-0.6,0.9-1.7,1.3-2.2,2.3c-0.5,1-1.5,1.7-2.2,2.5s-1.5,1.8-2.4,2.6
	c-0.9,0.7-1.9,1.2-3.2,2c-0.3,0.8-0.7,2-1.8,3c-1,0.8-1.6,2.1-2.4,3.2c-0.6,0.8-1.4,1.4-2.4,1.7c-0.6,0.2-1.2,0.6-1.6,0.9
	c-0.7-0.1-1.5-0.2-2.2-0.3c-0.6,0-1.3,0.1-1.9,0.2c-1,0.2-1.3,0.6-1,1.5c0.2,0.7,0.5,1.3-0.3,1.9c-0.2,0.1,0.1,0.9,0.2,1.6
	c-0.2,0.2-0.5,0.5-0.8,0.7c-0.1,0.1-0.5,0-0.6,0.1c-0.9,1.8-2.8,2.5-4.4,3.5c-1.3,0.8-2.7,1.3-4.2,2c-0.1-0.2-0.3-0.5-0.4-0.7
	c-0.1,0.1-0.3,0.1-0.3,0.2c0,0.8-0.5,1.6-1.2,2c-1.7,0.9-3.3,2-5,2.9c-2.7,1.4-5.5,2.7-7.8,4.8c-0.4,0.4-1.1,0.5-1.6,0.2
	c-2.6-1.3-5.2-2.5-7.7-3.9c-2.7-1.6-5.6-3-8.5-4.3c-2.1-0.9-4-2.5-5.9-3.7c-5.6-3.6-10.2-8.5-15.1-12.9c-2.2-2-4.5-3.9-6.7-5.9
	c-0.1-0.1-0.2-0.1-0.3-0.2L54.3,199.5z M124.4,189.2c-0.4,0.8-1,1.6-1,2.3c0,1.2,1.3,0.3,1.9,0.9c0.4,0.4,1.1,0.5,1.8,0.8l-0.4-2.6
	h1.9l-2.8-1.6L124.4,189.2z M129.4,197.2l-0.8-1.3h-2.6l-1.3,1.6C126.4,198.9,127.7,198.9,129.4,197.2L129.4,197.2z M124.4,193.3
	l-0.1-0.2c-0.1,0-0.3,0.1-0.3,0.1c0,0.1,0,0.2,0.1,0.3L124.4,193.3z"/>
<path class="st1" d="M37.2,125c-2.1,0.1-2.1,0.1-2.5,1.7c0.9,0.9,2.5-1.1,3.2,0.9l-1.1,0.9l0.7,0.3l-1.3,0.7l-0.5-0.8
	c-0.1,0.1-0.3,0.1-0.4,0.2c-1.3,1.2-1.4,2.4-0.7,3.9c0.2,0.4,0.3,0.9,0.4,1.3c0.1,0.6,0.3,1.2,0.5,2l2.3-0.4c0.2,0.7,0.3,1.3,0.4,2
	c0.1,1.1,0.2,2.3,0.3,3.4c0.1,2.6,1.3,4.8,2.6,7.1l1.6-2.5c1.6,2.1,3,4.1,4.6,6c1.5,1.9,3,3.7,5,5.1c0.2,0.1,0.3,0.4,0.5,0.6
	c0.3,0.5,0.7,0.9,1.1,1.3c1.4,1.3,2.7,2.6,4.2,3.7c1.9,1.5,4,2.8,6,4.3c0.7,0.5,1.4,1.2,2.4,1.9c-4,2.6-7.7,5-11.5,7.4
	c-3.8,2.4-7.8,4.4-11,7.4c-1.7-0.7-1.8-1.9-1.1-3.4l-1.2,0.1c-0.9-1.8-1.8-3.5-2.6-5.3c-0.4-0.8-0.8-1.7-1.2-2.5
	c-0.1-0.3-0.2-0.7-0.3-0.8c-1.5-0.1-1.3-1.5-1.7-2.4c-1.2-2.8-2.3-5.5-3.6-8.2c-0.9-2.1-2.3-4-3-6.1c-0.8-2.3-2.1-4.4-2.5-6.9
	c-0.5-2.6-0.8-5.2-0.9-7.8c0-0.8,0.8-2,1.4-2.2c1-0.3,1.5,0.3,1.9,1.1l3-0.2l0-0.4l-1.4-0.2c0.1-0.2,0.2-0.5,0.3-0.8l-1.6-0.7
	l0.5-0.9l-1.2,0.5l-1.4-1l-0.8,1.2l-3.8-2c-0.2-0.8,0.4-1.1,1.2-1.1c0.1-0.3,0.1-0.5,0.1-0.8c-0.1-0.7-0.1-1.7-0.6-2.1
	c-0.7-0.6-1.1,0.5-1.7,0.8c-0.1,0-0.3,0-0.4,0c-0.6-2-1-4.2-1.8-6.1c-1.7-4-2.4-8.1-2.7-12.4c0-0.6-0.5-1.1-0.7-1.7
	c-0.4-1-0.3-1,0.1-1.6c-0.5-1.1-1-2.1-1.3-3.2c-0.4-1.6,1-2.3,1.8-3.3c0.2-0.2,0.4-0.3,0.6-0.5c-2.1-2.5-1.3-5.5-2-8.3
	c-0.1-0.6-0.5-2,1-2.6c0.6-0.2,0.8-1.2,0-1.7c-0.8-0.6-1.7-1.1-2.6-1.5c0.3-0.4,0.8-0.9,0.9-1.4c0.1-0.5-0.4-1-0.7-1.6
	c0.5-0.6,1.2-1.2,0.8-2.4c-0.3-0.9-0.1-1.9-0.1-3l-1.7,0.8l-0.3-0.3l1.4-2.5L13.4,77c0.4-0.3,1.2-0.5,1.4-0.9
	c0.2-0.5-0.3-1.1-0.4-1.7c-0.1-0.5-0.2-1-0.2-1.5c-0.1-1.4,0.4-2.8-0.8-4c-0.9-0.2-1.8-0.4-2.7-0.5c-0.7-0.1-1.2-0.3-1.1-1
	c0.1-0.6,0.5-1.2,1.3-1.1s1,0.1,0.9-0.8c-0.1-0.3,0.4-0.7,0.6-1c0.5-0.6,1-1.1-0.2-1.5c-0.1,0,0-0.6,0-1.1c-0.6,0.1-1.2,0.2-1.8,0.2
	c-0.4,0-1,0.1-1.2-0.1c-0.3-0.4-0.3-0.8-0.2-1.3c0.1-0.3,0.6-0.5,1-0.6c4.6-0.5,9-1.9,12.9-4.3c1.2-0.7,2.3-1.6,3.5-2.4
	c0.4-0.3,0.8-0.5,1.4-0.9c0.1,2.3,1.1,4.1,1.2,6.2c0.1,2.3,0.8,4.5,1.2,6.7c0.2,0.9,0.2,1.7,0.4,2.6c0.1,0.9,0.1,1.8,1.1,2.5
	c0.4,0.3,0.4,1.4,0.3,2.2c-0.1,1.2,0,2.2,0.7,2.7c-0.2,0.9-0.5,1.5-0.4,2.1c0.2,1.9,0.6,3.7,0.9,5.7c3.2-0.5,6.4-1,9.5-1.5
	c2.3-0.4,4.6-0.9,6.9-1.2c3.4-0.5,6-2.3,8-4.9l0.6-0.8c0.4,2.5,0.7,4.7,1.1,7.1l10.7-1.5c-0.9,1.3-1.6,2.2-2.3,3.2
	c-0.7,0.9-1.4,2-2.2,3c-0.7,0.9-0.8,2-1.3,3c-0.5,1.1-0.9,2.2-1.3,3.3c-1.5-1.5-3-3.1-4.7-4.4c-3-2.3-6.3-3.9-10.1-4.1
	c-0.8,0-1.7,0-2.5,0.1c-3.9,0.6-7.8,1.2-11.7,1.8c-0.5,2.1,0.2,4,0.5,5.8c0.9,5.6,1.9,11.1,2.9,16.6c-1,0-1,0.1-0.9,2.9
	c-0.6,0.2-1.1,0.3-1.7,0.4c-0.6,0.1-1.2,0.1-1.8,0.1c-0.2-1.1-0.4-2.1-0.5-3c-0.2-1.4-0.4-1.5-1.6-1.5s-1.3,0.8-1.2,1.7
	c0,0.1,0,0.2,0.1,0.4l1.2,0.6l-1.3,0.4c0.7,1.1,0.2,2.1,0,3.2c-0.1,0.4-0.3,0.7-0.2,1c0.4,1.9,0.9,3.8,1.3,5.7
	c0.2,1.2,1.1,1.5,2,1.5c1,0,1.4-0.7,1.7-1.5c0.1-0.3,0.2-0.5,0.4-0.7l-0.9-0.8c0.2-0.4,0.4-0.7,0.6-1.1c0.3-0.7,0.4-1.3-0.4-1.8
	c-0.5-0.3-1.1-0.6-0.8-1.5c0.1-0.5-0.1-1.2,0.6-1.3c0.7-0.1,1.5-0.1,1.9,0.6c0.6,1,0.7,2.2,1.9,2.8c0.1,0.1,0.2,0.6,0.1,0.8
	c-0.7,1.5-0.4,3.1-0.2,4.6C37.3,123.2,37.3,124.1,37.2,125z M30,145.6c0.2,0.1,0.5,0.9,0.7,0h2.2l-1.3,1.4c0.4,0.6,1,1.2,1.1,1.9
	c0.2,1,0,2.2,1.6,2.2c0.1,0.3,0.2,0.7,0.2,1c0.5-0.5,1.4-0.9,1.3-1.2c-0.2-1,0.6-1.4,1.1-2l1,0.8c0.8-0.9,0.5-1.8,0.3-3l-1.9,1.4
	c-0.4-0.6-0.8-1.3-1.2-2l1.6-1.4l-0.5-1c-0.7,0-1.3,1.2-1.9,0c0.2-0.6,1.2-1.2,0.5-1.9c-0.4-0.5-1.2-0.8-1.7-1.1l-0.9,0.9
	c-0.3-0.3-0.5-0.6-0.7-1c-0.1-0.3-0.2-0.6-0.3-1l-2.8,0.2c0.3,0.8,0.5,1.5,0.8,2.2C29.4,143.3,29.7,144.4,30,145.6z M31,154.4
	c0.4,2.9,0.7,3.4,1.8,3.6c0.3-1.3,0.5-2.5,0.8-3.8C32.6,153.1,31.8,154,31,154.4L31,154.4z M32.1,101.3c-1.8,0-1.8,0-2.1,1.5
	c-0.2,1.2-0.3,2.5-0.4,3.8c-0.4-1.3,1.5-0.5,1.3-1.4C29.2,103.3,31.6,102.6,32.1,101.3L32.1,101.3z M37.9,145.5
	c-0.9,0.3-0.7,0.7-0.1,1.2c0.1,0.1,0.4,0,0.7-0.1L37.9,145.5z"/>
<path class="st1" d="M49.5,123.5c7.3-2.2,12.7-6.4,15.3-13.9c0.5,0.3,0.8,0.5,1,0.7c1.5,2.8,3.8,4.8,6.2,6.5
	c5.9,4.2,12.5,5.8,19.8,4.2c4.2-0.8,8-2.8,11.1-5.7c2.6-2.4,4.7-5.3,5.9-8.7c0.4-1.3,0.9-2.5,1.4-3.9c1,1.1,1.8,2.2,2.9,3.1
	c1.4,1.2,2.7,2.4,4.3,3.2c5.7,2.9,11.7,3,17.8,1.1c2.5-0.8,5-1.6,7.6-2.5l0.8,1c-0.2,0.7-1.2,1.1-0.5,2.1c0.2,0.4-0.6,1.3-0.6,1.9
	c-0.1,1.9,0,3.7,0.3,5.6c0.2,0.7-0.1,1.4-0.6,1.8c-2.7,2.6-5.5,5.3-8.3,7.8c-1.3,1.2-2.9,2.1-4.4,3.1c-1.7,1.1-3.3,2.2-5,3.2
	c-1.1,0.7-2.3,1.3-3.6,1.9c-2.8,1.1-5.7,2-8.5,3c-0.4,0.1-0.8,0.2-1.2,0.4c-2.1,0.9-4.3,1.4-6.6,1.6c-3.4,0.2-6.7,0.7-10.1,1.1
	c-0.8,0-1.6,0-2.4-0.1c-2.6-0.2-5.3-0.3-7.9-0.7c-2.1-0.3-4.3-0.8-6.4-1.3c-5.4-1.2-10.7-3.2-15.5-6c-3.7-2.1-7.4-4.3-10.5-7.3
	c-0.4-0.4-0.9-0.6-1.3-0.9C49.7,125.4,49.1,124.7,49.5,123.5z"/>
<path class="st1" d="M26.5,45.4c0.1,0.8,0.2,1.6,0.4,2.4c0.1,0.9,0,1.6-0.9,2.2c-2.6,1.5-4.9,3.4-7.6,4.8c-2.8,1.5-6,2.2-9.1,2.2
	c-0.5,0-1,0.3-1.5,0.4c-0.9,0.2-1.4-0.3-1.2-1.2c0.2-1.4,1.3-2.4,2.7-2.6L9,52c-0.6,0.7-1.1,1.2-1.6,1.7c-1,1.1-1,1.1-2.3,1.1
	C5,55.2,5,55.6,4.9,56.1c0,0.2-0.2,0.5-0.4,0.6c-0.7,0.5-0.7,0.5,0.4,1.5l0.5-1.5L5.8,57C5.7,60,6.5,63,5.5,65.7
	c0.4,0.9,0.9,1.6,1,2.4c0.3,1.8,0.3,3.6,0.5,5.4c0.1,1.2,0.4,2.5,0.3,3.8l-0.7-1.4l-2,2.6c0.7,1.9,2.3,1.2,3.6,1.7l0.3,2.1l-3.2,1
	l-0.5,2.2c0.3,0.5,0.8,0.8,1.5,0.3c0.8-0.6,1-1.4,0.6-2.5l1.6-0.1l0.1,0.4L7.5,84c0.1,0.1,0.2,0.2,0.4,0.4c0.3,0.3,0.7,0.7,0.9,1.1
	c0.1,0.3,0.2,0.7,0.2,1c0.5,3.1,0.4,3.2-2.6,3.5c-0.2,0.7-0.5,1.4-0.8,2.6l3.9-0.9c0.4,0.9,0.7,1.8,0.3,2.9C9.6,95,9.9,95.5,10.1,96
	c-0.7,0.1-0.7,1.7-2,0.7c-0.2-0.1-1.1,0.4-1.3,0.7c-0.1,0.5,0,1,0.3,1.4c0.9,0.9,1.9,1.7,2.8,2.5c0.3,0.3,0.8,0.7,0.7,1
	c-0.2,0.7-0.6-0.1-0.9,0c-0.1,0-0.2,0.1-0.3,0.2l-2.6,1.7c0.5,0.2,1.1,0.5,1.7,0.7c0.2,0.1,0.4,0.3,0.5,0.5c0.5,1.4,1.6,2.1,2.6,3.1
	c0.6,0.6,0.7,1.9,1,2.8c0.1,0.6,0.4,1.6,0.1,1.9c-0.7,0.8,0.3,1.3,0,1.9c-0.2,0.4-0.4,0.7-0.7,1.2c0.8,0.7,0.8,1.7,0.3,2.6
	c-0.4,0.7,0.4,1.9-1,2.4c-0.3,0.1-0.4,1.3-0.4,1.9c0,0.3,0.7,0.6,1.2,0.7c0.7,0.1,1.4,0,2.1,0c0.9,0,1.9-0.2,1.8,1.3l-1.5,0.5
	c0.8,1.1,2.7,0.5,2.8,2.5c0.1,1.6-0.4,2.5-1.4,3.5c1.1,0.6,0.3,1.1-0.2,1.8l1.6,0.5c0.6,1.5,0,2.7-1.1,3.8l0.3,0.2
	c0.3-0.1,0.6-0.2,0.8-0.2c0.2,0,0.3,0,0.5,0c0.6,0.2,1.1,2.3,0.5,2.7c-0.5,0.4-1.2,0.5-1.9,0.4c-0.6-0.1-1-0.6-1.6-0.9
	c0-1,0-2.2-0.2-3.3c-0.1-1.1-1-1.3-1.8-1.4c-0.5-2.1-1-4-1.6-6c-0.2-0.8-0.6-1.5-0.8-2.2c-0.8-3.1-2.2-6.1-2.3-9.4
	c0-0.5-0.1-0.9-0.3-1.4c-1-1.9-1.2-4-1.5-6.1c-0.2-1.2-0.6-2.4-0.8-3.6c-0.3-1.8-0.4-3.6-0.7-5.4C4.6,97.6,4,94,3.5,90.4
	s-1-7.1-1.5-10.7C1.5,75.2,0.8,70.6,0.4,66C0.1,62.2,0.1,58.3,0,54.5c0-0.9,0-1.7,0-2.7h5c1.1,0.6-0.3,1.7,1,2.1
	c0-1.3,0.6-1.8,1.8-2.1c1.3-0.4,2.6-0.5,3.9-0.8c3.1-0.8,6.3-1.5,8.7-3.9c0.5-0.5,1-1,1.6-1.4c4.7-3.1,7.1-7.6,8.4-12.8
	c0.7-3,1.2-6.1,0.4-9.2c0-0.3,0-0.6,0-0.9c1,0.4,1.6-1.3,2.7-0.4c0.4-0.5,1-0.9,1.1-1.4c0.2-0.8,0-1.6,0-2.6l2.9-0.9
	c0.3,2.2,2.1,2.3,3.6,2.9c-0.7,2.1-2.6,2.6-4.2,3.4c-0.1,2.5-0.2,4.9-0.5,7.3c-0.4,3.6-1.5,7.1-3.2,10.4c-0.4,0.8-0.8,1.6-1.4,2.4
	c-0.9,1.1-2,1.8-3.5,1.3C27.9,45,27.3,45.3,26.5,45.4z M2.7,72.6c0.2,0.1,0.5,0.2,0.7,0.3c0.9,0.3,2.2-0.3,2.1-1c-0.2-1-0.6-2-1-2.9
	c0-0.1-0.3-0.1-0.5-0.2l0.4,0.8l-1.1,0.6l0.8,1.5C3.9,72.7,2.7,71.3,2.7,72.6z M2.6,67.8l2.1-1.4c-0.4-1.7-1.6-0.6-2.7-0.7L2.6,67.8
	z"/>
<path class="st1" d="M204.5,74.2c-0.2-0.2-0.4-0.5-0.4-0.7c0-0.2,0.4-0.5,0.6-0.5c0.5,0.1,0.9,0.2,1.4,0.4c0.5,0.2,1,0.4,1.5,0.5
	c-1.7-1.6-0.4-2.8,0.6-4.2c-0.7,0-1.4,0-2,0c-0.9-0.1-1.6-0.9-1.5-1.6c0.1-0.9,0.6-1.3,1.8-1.2c0.4,0,0.8,0,1.2,0.1
	c0.4,0,0.7,0,1.1,0c-0.4,1-0.4,1-1.8,1.5l1.4-0.1c0.1,0.4,0.3,0.9,0.4,1.3h0.3l0.4-1.4l0.1,0c1,2.6,0.4,5.2,0.1,8l-3.2,1.1l-0.6,1.2
	c0.9,1.5,1.9,1.5,3.8,0c-0.3,1.6-0.4,2.9-0.7,4.1c-0.2,0.6-0.8,1.1-1.4,1.4c-0.9,0.4-1.3,0.7-0.5,1.6c0.2,0.2,0.1,0.7,0.1,1.3
	l1.4-0.4c-0.6,0.6-1,1-1.5,1.4c1.2,1,0.5,2.3,0.6,3.6c0.1,1.8-0.3,3.5-0.5,5.2c-0.1,0.6-0.5,1.1-0.8,1.7c-0.1,0.2-0.4,0.4-0.3,0.6
	c0.6,1.5-0.3,3-0.1,4.6c0.4,2.6-0.6,5.1-1.4,7.6c-0.5,1.5-1.1,3-1.9,4.4c-0.2-0.8-0.3-1.6-0.4-2.4l-0.3,0c-0.1,0.3-0.2,0.7-0.2,1
	c-0.2,3.3-0.3,6.7-0.6,10c-0.3,2.8-0.6,5.7-1.9,8.3c-0.5,1-0.6,2.1-0.9,3.2c-0.2,0.7-0.3,1.4-0.5,2c-1.3,4.1-2.6,8.2-4,12.2
	c-0.8,2.2-1.9,4.3-2.8,6.4c-1.1,2.7-2.2,5.4-3.3,8.2c-1,2.5-1.8,4.9-2.9,7.4c-0.5,1.1-1.4,2-2,3.1c-0.7,1.3-1.2,2.7-1.9,4.3
	l-4.9-2.7c0.3-2.2,1.2-4.2,2.7-5.9c1.7-1.9,2.3-4.3,3.2-6.6c2-4.9,4-9.9,6-14.9c0.7-1.9,1.2-3.8,1.8-5.7c0.5-1.5,0.8-3,1.5-4.3
	c1.3-2.3,1.4-4.8,2.1-7.2c0.8-2.5,1.5-5,2-7.6c0.3-1.4,1.1-2.7,1.5-4.1c0.5-1.7,0.8-3.4,0.9-5.2c0.2-2.2,0.7-4.4,1.5-6.5
	c0.7-1.9,1.1-3.8,1.4-5.8c1.1-8.2,2.2-16.4,3.2-24.6C203.6,76.5,203.3,75.1,204.5,74.2z"/>
<path class="st1" d="M50.8,15.3c1.1-0.2,2.2-0.5,3.3-0.9c0.3-0.1,0.5-0.7,0.6-1.1c0.1-0.8,0.1-1.5,0-2.3c1.4-0.6,2.6-1.3,3.9-1.7
	c0.7-0.2,1.5,0.1,2.3,0.1c0.4-1.4,1.6-1.7,2.9-2c2.4-0.7,4.7-1.7,7.1-2.6c0.8-0.3,1.5-1,2.1,0.4C73,5.6,74,5.7,74.6,5.7
	c0.5,0,0.7-0.4,0.8-1.1c0.2-1.2,0.7-2.3,2.2-2.7c1.3-0.4,2.6-1,3.9-1.5c2-0.8,2.9-0.5,4.1,1.3c2.4,3.8,5.7,6.6,9.7,8.7
	c1.7,0.9,3.7,1.1,5.6,1.5c3.5,0.7,7.2,0.6,10.6-0.4c2.9-0.9,5.6-2.1,8.2-3.6c2.2-1.2,3.9-3.2,4.7-5.5c0.2-0.4,0.4-0.8,0.7-1.2
	c1.2-1.5,1.6-1.5,3.5-0.9c3.1,1,6.2,1.8,9.2,2.9c1.6,0.6,2.9,1.6,4.8,2.7l-1.9,0.3l0.3,1.2l-2.3-0.7l1-1.5l-0.3-0.7
	c-0.2,0-0.4-0.1-0.4-0.1c-0.8,1.1-2.5-0.3-3.5,1.1l-1.3-0.5l0.5-0.5c-2.2-2-4.5-3.4-7.6-1.3c0.1,1.3,0.1,2.8,0.3,4.3
	c0.1,0.8-0.1,1.5-0.7,2.1c-4.3,4.8-9.8,7.4-16.1,8.2c-7.4,1-14.9-0.7-21.3-4.6c-2.5-1.5-4.7-3.4-6.5-5.7C82,6.6,81.4,6.7,80.6,7
	c-3.6,1.5-7.1,3-10.7,4.4c-2.2,0.9-4.4,1.7-6.7,2.6L63,13.7l0.7-0.9c0-1.3-1-1.6-2-1.9c-0.2,0.4-0.5,0.8-0.7,1.2L60,10
	c-0.3,0.1-0.5,0.3-0.7,0.3c-1.3,0-1.3,0-1.2,1.4s0.3,2.7,0.5,4.1c-1.7,0.7-3.3,0.9-4.9,0.1c-0.6-0.3-1.4,0-2.4,0
	c0.4,0.8,0.6,1.4,0.9,2.1l-1.7,0.6l-0.2-0.4l0.7-1.1l-0.8-1L50.8,15.3L50.8,15.3z"/>
<path class="st1" d="M74.1,99.3c-0.1-4.9,3.2-9.7,7.3-11.7c2.9-1.4,5.7-1,8.4-0.2c1.6,0.5,3.4,0.9,4.7,2.2c2.4,2.2,3.8,5.3,3.8,8.6
	c0,1.6-0.4,3.2-1.3,4.6c-2,3.2-4.4,5.5-8.3,6.1c-1.8,0.3-3.5,0.9-5.4,0.5c-3.5-0.7-6-2.7-7.8-5.5C74.7,102.4,73.6,100.9,74.1,99.3z"
	/>
<path class="st1" d="M105.5,242.6c2.9-1.5,5.4-2.7,7.9-3.9s5-2.5,7.6-3.9v4.8c1.1-0.3,1.3-1.1,1.3-1.9c0-0.9,0-1.8-0.1-2.6
	c-0.1-0.8-0.1-1.5,0.8-1.9c1.1-0.6,2-1.6,3.5-1.3c0.9,0.2,0.9,0.8,0.8,1.4c0,0.1-0.5,0.1-0.7,0.1c1.5,1.4-0.3,2.3-0.9,3.5l1.8,0.2
	c-1.3,1-2.6,1.9-3.8,2.7c-0.2,0.2-0.6,0.1-0.9,0.2c-0.4,0.1-0.8,0.1-1.1,0.3c-1.8,1.3-3.7,2.5-5.7,3.5c-2.2,1.1-4.5,2-6.6,3.2
	c-2.4,1.3-4.5,1.2-6.9-0.1c-2.8-1.5-5.9-2.4-8.7-3.9c-4.5-2.5-9.2-4.7-13.6-7.4c-5-3.2-9.6-6.9-13.8-11.2c0.2-1.6,0.3-3,0.5-4.6
	c-1.9-0.8-1.5-2.5-1.9-4.1c0.4,0.2,0.6,0.2,0.8,0.4c1.3,1.7,3.2,2.7,4.7,4.2c1.5,1.5,2.9,3.1,4.6,4.3c4.2,3.2,8.5,6.3,12.9,9.2
	c2.2,1.4,4.9,2.2,7.3,3.4c1.7,0.9,3.3,2,5,2.9C102,241.1,103.9,241.9,105.5,242.6z"/>
<path class="st1" d="M158,14.9c0.8-0.7,0.2-2.7,2-2.3c0.5,0.1,0.8,1,1.3,1.6c1.2-0.4,2.5-0.3,4,0.4c3.5,1.5,7,2.7,10.5,4
	c0.8,0.3,2,0.4,1.7,1.8l2.3-0.4c-0.2,1.8-2.3,2.9-1,4.7h0.3c-0.2,0.9-0.5,1.8-0.5,2.7c0,1.2-0.4,1.5-1.5,1.1c-0.3-0.1-0.6-0.2-1-0.4
	c-0.2,1.6,0.3,2.5,1.1,2.2c0.7-0.4,1.3-0.8,1.8-1.5c0.3-0.3,0.3-0.8,0.5-1.5c1,2.6,0.3,5.3,0.9,7.9c-0.7,0.6-1.6,1.4-1.1,2.8
	c-0.4,0.3-1,0.4-1.1,0.7c-0.1,0.3,0.2,0.8,0.3,1.3c-0.6,0.6-1.1,0.8-1.6-0.2c-0.3-0.7-0.6-1.4-0.9-2.1c-0.5-1.1,0-2.3-1.1-3.4
	c-0.8-0.7-0.8-2.4-0.9-3.6c-0.1-2.1,0.1-4.2,0.1-6.4c-2-0.8-4.2-1.6-6.4-2.5c-1.4-0.6-2.8-1.2-4.2-1.7c-1-0.3-1.3-0.8-1.1-1.8
	c0.1-0.8,0-1.7-0.3-2.5c-0.6,0.9-1.2,1.9-1.8,2.8c-1.1-0.4-1.9-0.8-2.9-1c-1.9-0.5-2.7-1.9-3.1-3.6c-0.3-1.3-0.9-1.8-2.3-1.6
	c-0.2,0-0.4,0-0.6-0.1l3.1-1.9c0.4,0.3,0.8,0.5,1.2,0.7c0.9,0.4,0.9,0.9,0.5,1.7c-0.2,0.5-0.3,1.1-0.4,1.6L158,14.9z"/>
<path class="st1" d="M202.5,54.7c0.4-0.9,0.8-1.8,1.2-3l1.8,0.1l-0.6,0.9l2.8,3.6c-0.3,1.4-0.7,2.7-0.9,4c0,0.5,0.2,0.9,0.4,1.3
	c0.6,0.9-0.5,1-0.5,1.2c0.1-0.2,0-0.4-0.1-0.6c-0.4-0.3-0.7-0.5-1.2-0.6c0.6-1.7,0.3-3.7-0.8-5.1c-0.8,0.2-1.5,0.6-2.2,0.6
	c-4.1-0.5-8.1-1.2-11.8-3.1c-1.3-0.6-2.5-1.4-3.5-2.3c-2.8-2.5-5.6-5-7.7-8.1c-0.3-0.5-0.6-1-1-1.5l3.3-5.7c0.4,0.5,0.8,0.9,1.1,1.3
	c1.9,4.2,5.3,7.1,8.7,10c1.2,1,2.9,1.5,4.4,2c2,0.7,4,1.2,6.1,1.9C202.6,52.4,200.7,53.9,202.5,54.7z"/>
<path class="st1" d="M156.6,204c0,0.2,0.1,0.4,0.1,0.5c-0.5,1.1-0.1,1.3,1,1c0.4-0.1,1,0,1.7,0c-0.2,0.4-0.4,0.7-0.6,1
	c-0.9,1.1-0.9,1.1,0.2,2c0.5,0.4,0.5,1.4-0.1,1.6c-0.9,0.3-1.6,1.3-2.8,1c-0.3-0.1-0.7,0.5-1.1,0.8l-1.2-0.6
	c0.2,0.8,0.3,1.4,0.4,1.9l2.1,0.2c-0.8,1.1-1.3,1.9-1.9,2.5c-2.4,2.2-4.8,4.2-7.2,6.4c-1.3,1.2-2.3,2.6-3.5,3.8
	c-0.4,0.4-1,0.5-1.4,0.9c-0.3,0.3-0.5,0.7-0.9,1c-1,0.9-2.1,1.9-3.1,2.7c-0.2,0.1-0.5,0-0.8,0c-0.2-1.8-0.5-3.5-0.6-5.1
	c0-0.5,0.4-1.1,0.7-1.6c0.3-0.4,0.6-0.7,1-1c2.1-1.6,3.8-3.6,5.5-5.7c2.1-2.6,4.3-5.2,6.8-7.4C153,208.1,154.3,205.7,156.6,204z"/>
<path class="st1" d="M46,94.7c1.6-0.6,2.8,0,4,0.7c4.2,2.6,4.6,6.8,4.2,11c-0.2,2.2-2,3.8-3.8,5.1c-0.4,0.3-1.3,0-2,0
	c-0.9-5.6-1.7-11-2.6-16.3C45.9,95.1,45.9,94.9,46,94.7z"/>
<path class="st1" d="M29.2,173c1.2,0.2,2,2.3,3.4,0.8c0.5,0.3,0.8,0.6,1.2,0.6c1.2,0,2,0.8,1.9,2.1c0,0.2,0,0.3,0,0.6
	c1.1-0.3,1.5,0.6,1.6,1.3c0.3,2.5,1.8,4.4,2.9,6.5c0.5,1.1,1.2,2.1,1.9,3.5l-1.7,1.7l-0.6-3.3l-3.6,2.4c-0.7-1-1.5-1.9-2-2.9
	c-0.9-1.8-1.6-3.6-2.4-5.4c-0.3-0.5-0.5-1.1-0.7-1.6c-0.1-0.6-0.2-1.1-0.3-1.7c-0.7-0.7-1.6-1.2-1.9-2
	C28.7,174.8,29.1,173.9,29.2,173z"/>
<path class="st1" d="M158,108.4c1.3-4.6,1.9-9.3,3.7-13.7c4,1.5,5.3,5.2,4.4,8.5C165.2,106.9,161.9,108.9,158,108.4z"/>
<path class="st1" d="M55,205.8l2.4,2.2c0,0,0.1,0.1,0.1,0.1c0,1.7,1.6,2,2.5,3c0.7,0.7,1.5,1.4,0.5,2.5c-0.1,0.2,0.2,0.7,0.3,1.1
	c0,0.1,0.3,0.3,0.3,0.3c-0.8,1.3,0.7,1.7,1.1,2.6c0.1,0.3,0.8,0.3,1.2,0.5c-0.1,1.1-0.2,2.2-0.3,3.6c-0.6-0.6-1.1-1-1.5-1.4
	c-3-2.9-5.9-5.9-8.9-8.8c-0.8-0.8-1.2-1.7-1-2.8c0.2-1.2,0.6-2,1.8-2.3C53.9,206.2,54.5,206,55,205.8z M55.5,210.9
	c0.9-1.9,0.6-2.5-1.3-3.4c-0.5,0.6-1,1.2-1.6,2C54.1,209.1,55.1,209.5,55.5,210.9z"/>
<path class="st1" d="M65.8,47.8c-0.1-1.1,0.6-2.1,1.6-2.2c3.6-0.5,6.9,3.4,6.2,6.2c-0.8,3-1.9,4.5-4.6,5.1c-1.1,0.2-1.7,0-1.9-1
	C66.7,53.2,66.2,50.4,65.8,47.8z"/>
<path class="st1" d="M159.2,204.7c0.2-1,0.4-1.7,0.5-2.6l-0.8-0.9c0-0.2,0-0.4,0.1-0.4c2-1.1,2.9-3.1,4.1-4.8c0.7-1,1.4-2,2.2-3.1
	l5.3,2.2c-1.5,2.2-2.8,4.2-4.2,6.2c-0.3,0.4-0.6,0.8-0.9,1.2c-0.7,0.7-1.3,1.6-2.5,0.8c-0.2-0.2-0.7,0.1-1.1,0.2
	C161.1,203.8,160.3,204.2,159.2,204.7z"/>
<path class="st1" d="M32.6,169.7c-0.2,0.1-0.5,0.2-0.7,0.3c-0.3,0-0.5,0-0.8,0c-0.1-0.4-0.1-0.8-0.3-1.2c-0.5-1.3-1.1-1.5-2.3-0.9
	c-1.5,0.8-1.5,0.8-3.1-0.3l0.3-2l-2.6-1.2l1.5-0.5c-0.2-0.3-0.4-0.6-0.6-0.9c-0.2-0.3-0.4-0.7-0.5-1c-0.2-0.8-0.3-1.6-0.5-2.6
	c0.3-0.1,0.7-0.1,1.1-0.2c0.9-0.2,1.7-1.3,1.5-2c-0.3-1.1-1.2-0.6-2.1-0.6l1.5-2.7C27.7,159.2,30.8,164.1,32.6,169.7z"/>
<path class="st1" d="M77.3,75.8c-1.8,1.1-3.3,2.2-4.9,3.1c-0.9,0.5-1.3,0.2-1.5-0.9c-0.6-3.7-1.2-7.4-1.8-11.1
	c-0.2-1.2-0.4-2.4-0.5-3.7C72.1,66.9,74.8,71.2,77.3,75.8z"/>
<path class="st1" d="M167.5,188.9c1.1-1.8,2.2-3.5,3.3-5.2c0.3-0.3,0.7-0.4,1.1-0.3c1.7,0.5,3.4,1.1,5.2,1.6c-1.4,2-2.8,3.9-4.2,5.8
	c-0.5,0.7-1.2,1-2,0.5C169.8,190.7,168.8,189.9,167.5,188.9z"/>
<path class="st1" d="M85.2,54.1c1.1,4.8,2.2,9.2,2.4,13.7L87.3,68c-0.4-0.3-0.8-0.6-1.1-0.9c-1.4-2.2-2.8-4.5-4.2-6.7
	c-0.2-0.3-0.3-0.7-0.2-1.1c0.6-1.1,1.2-2,1.9-3C84.2,55.6,84.6,55,85.2,54.1z"/>
<path class="st1" d="M168.1,182.5l-3,4.6l-11.5-7.5l0.2-0.3L168.1,182.5z"/>
<path class="st1" d="M42.2,72.3L41.1,66c0.8-0.3,1.5-0.5,2.3-0.7c2-0.5,3-0.1,3.9,1.7c0.8,1.7,0.5,3.3-0.9,4.4
	C45.2,72.3,44,72.6,42.2,72.3z"/>
<path class="st1" d="M39.6,57.5c-0.4-1.8-0.8-3.7-1.2-5.8c1.4-0.2,2.8-0.6,4.2-0.6c1.8-0.1,3.3,2.4,2.5,4
	C44.2,57.3,43,57.8,39.6,57.5z"/>
<path class="st1" d="M44.8,192.3c1.8,0.6,2.2,2.4,3.2,3.7c0.8,1-0.2,1.8-0.7,2.5c-0.7,0.9-1.8,1.6-2.8,2.5c-1.1-1.7-2.1-3.2-3-4.7
	c-0.1-0.2,0-0.6,0-0.9c-0.1-0.4-0.1-0.7-0.2-1.1l2,0.6C44.4,194.6,45,193.7,44.8,192.3L44.8,192.3z"/>
<path class="st1" d="M61.2,186.4l-10.1,8.4l-2.5-3.5l12.5-5.1L61.2,186.4z"/>
<path class="st1" d="M53.5,204.1c-1.1,0.7-2.3,1.3-3.3,2.1c-0.4,0.3-0.4,0.9-0.7,1.5c-0.5-0.7-1-1.5-1.4-2.3
	c-0.2-0.4-0.1-0.9-0.7-0.3c-0.3-0.4-0.7-0.9-0.2-1.4c0.4-0.4,0.8-0.7,1.2-0.9c0.8-0.4,1.5-0.7,2.1-1.5c0.5-0.8,1.1-0.7,1.6,0.2
	C52.6,202.3,53,203,53.5,204.1z"/>
<path class="st1" d="M47.6,185.9c0.3-0.2,0.5-0.5,0.7-0.8c0.6-0.9,1.1-0.9,1.9-0.3c0.5,0.3,0.9,0.5,1.5,0.7c0.4,0.2,0.6,0.7,0.3,1
	c-0.8,0.5-0.4,1,0.1,0.9c1.5-0.1,0.9,0.8,0.6,1.7l-0.6-1.3l-1.3,1.1l-1.3-0.5l-1.3,0.7l-2.2-1.8c0-0.6-0.1-1.5-0.1-2.6
	C46.7,184.9,47.7,184.5,47.6,185.9l0,0.1L47.6,185.9z"/>
<path class="st1" d="M135,14.4c0.2,1.2,0.5,2.4,0.5,3.5c0,0.8-0.4,1.7-1.6,1.3c0-1.4-0.8-3,0.5-4.8l-1.1-2.7
	c1.1,0.1,2.1,0.1,3.2,0.8c0.8,0.6,2.3,0,2.8,1.4c-0.7,0.7-2.2,0.1-2.1,1.8l-1.1-2L135,14.4z"/>
<path class="st1" d="M22.6,151l-2.1-1.8h1.3c-0.1-0.3-0.1-0.4-0.1-0.4c-0.7-0.5-1-1.3-0.9-2.1c0.1-1.3-0.1-2.7-0.1-4
	c0-0.5,0.2-1,0.6-1.3c0.1,0.2,0.2,0.4,0.2,0.5c-0.2,1.9,0.8,3.5,1.1,5.3c0,0.2,0,0.3,0.1,0.5c0.5,1,1.1,2,1.7,3.1L22.6,151L22.6,151
	z"/>
<path class="st1" d="M130.4,231.2c1.6,1,1.6,1.6-0.4,3c-0.5-0.3-0.9-0.7-1.3-1.1c-1.3-1.5-0.9-3,1-3.6c0.2-0.1,0.7,0,0.8,0.1
	C130.4,230.1,130.4,230.6,130.4,231.2z"/>
<path class="st1" d="M135.4,173l-3.4,1.7c-0.7-0.1-1.2-0.7-1.2-1.8C132.6,171.6,134,171.7,135.4,173z"/>
<path class="st1" d="M53.3,23.1c-0.2-0.9,0.2-1.3,1.2-1.1c-0.6-0.6-1-1.1,0.4-1.5c1.1,2-0.3,4,0.2,5.9c-2,0.7-2.6,0.6-4-0.4l2.5-0.3
	c0.1-0.7,0.1-1.4,0.2-2.5l0.4,0.9l0.3,0c0-0.4,0-0.8-0.1-1S53.6,23.1,53.3,23.1L53.3,23.1z"/>
<path class="st1" d="M135.6,230.9c-0.4,0.4-1.1,0.6-1,0.9c0.1,1.9-1.4,2.2-2.6,2.8l-0.4-0.8l1.9-0.5l-1.8-1.9c0.4-0.1,0.8,0,1-0.2
	C133.8,229.9,133.7,229.9,135.6,230.9z"/>
<path class="st1" d="M19,148.2l-1.1,0.5c-0.4-1.1-0.9-2-1-3s0-1.9,0-3.2c0.7,0.8,1.2,1.3,0.4,2.2c0.7,0.7,2.2,0.9,1.1,2.3
	C18.2,147,18.6,147.6,19,148.2z"/>
<path class="st1" d="M52.1,39.8c0.4,1.8,0.8,3.4,1.2,5.2l-2.9-2.2L52.1,39.8z"/>
<path class="st1" d="M22.5,150.9c-0.7,0.9,0.1,1.3,0.7,1.5c1.2,0.5,1.2,0.5,0.9,1.7c-0.9,0.2-1.8,0.6-2.7-0.6l1.2-0.5l-2.1-2.2
	L22.5,150.9L22.5,150.9z"/>
<path class="st1" d="M55.8,61.9l-2.8-2c0.6-0.7,1.1-1.3,1.7-2.1C55.9,59,55.6,60.4,55.8,61.9z"/>
<path class="st1" d="M55.9,49.3l1.4,0.7c0,0.4-0.1,0.9-0.1,1.5l1.4-0.8l0.2,0.2l-2,2.3C55.5,52,56,50.7,55.9,49.3z"/>
<path class="st1" d="M144.3,11.5l-2.5-0.8c-0.2-0.8-0.3-1.7-0.6-2.8c0.8,0.5,1.8,0.2,2.1,1.3C143.6,10,143.9,10.7,144.3,11.5z"/>
<path class="st1" d="M40.6,193.8c1.3-1.3,2-2.8,2.6-4.3c1.1,1,1,0.9,0.2,2c-0.5,0.6-1.3,1-1.3,2.1C42.2,194.2,41.3,194,40.6,193.8z"
	/>
<path class="st1" d="M51.9,12.5c0.1,0.7,0.2,1.3,0.4,2.1l-1.3-0.4l-0.1,1.2l0,0l-1.6-2.2L51.9,12.5L51.9,12.5z"/>
<path class="st1" d="M23.5,136.9l1.9,1.4l-1.2,0.2c0.4,0.4,0.8,0.7,0.9,1c0.1,0.4-0.1,0.8-0.1,1.2c0,0.4,0.1,0.9,0.1,1.3l-0.4,0.1
	c-0.5-1.7-1-3.4-1.5-5.1L23.5,136.9z"/>
<path class="st1" d="M63.3,40.9c-0.8-0.3-1.4-0.4-1.7-0.7c-0.3-0.4-0.2-0.9-0.2-1.3c0.1-0.9,0.5-1.4,1.7-1.1
	C63.1,38.7,63.2,39.6,63.3,40.9z"/>
<path class="st1" d="M41.1,18.7l-1.7-0.5c0.5-0.7,0.1-1.8,1.4-1.9C41,17.1,42,17.8,41.1,18.7z"/>
<path class="st1" d="M149.7,8.6l-4.1,0.4C146.5,7.6,148.2,7.5,149.7,8.6L149.7,8.6z"/>
<path class="st1" d="M53.3,23c-0.4,1.5-1.3,1.8-2.8,1l1.1-1.4L53.3,23L53.3,23z"/>
<path class="st1" d="M146.5,11.8c0.2-0.5,0.3-1.1,0.6-2l1.5,1.5L146.5,11.8L146.5,11.8z"/>
<path class="st1" d="M149.7,8.6l1.6,0.2l-1.7,1.1l-0.2-0.3L149.7,8.6L149.7,8.6z"/>
<path class="st1" d="M51.9,12.5l1.9-0.7l0.1,0.4L51.9,12.5L51.9,12.5z"/>
<path class="st1" d="M146.5,11.7c-0.1,0.2-0.3,0.7-0.4,0.7c-0.4-0.1-0.8-0.3-1.1-0.7L146.5,11.7L146.5,11.7z"/>
<path class="st1" d="M49.4,39.3l0.2-1.1C50,39,50,39,49.4,39.3L49.4,39.3z"/>
<path class="st1" d="M44.8,192.3C44.7,192.1,44.6,192,44.8,192.3C44.7,192,44.8,192.1,44.8,192.3L44.8,192.3z"/>
<path class="st1" d="M158.1,21.4l-0.6-0.1l0-0.2l0.7,0.1L158.1,21.4z"/>
<path class="st1" d="M150.1,18.5l0.2-0.3l0.1,0.1L150.1,18.5z"/>
<path class="st1" d="M30.7,145.6H30c0.1-0.2,0.2-0.4,0.3-0.6L30.7,145.6z"/>
</svg>
